<svg xmlns="http://www.w3.org/2000/svg" viewBox="0 0 2048 2048" width="100%" height="100%">
  <path d="M 1166 135 L 1076 121 L 1055 135 L 1025 141 L 995 165 L 966 230 L 960 322 L 969 349 L 990 372 L 1014 464 L 994 494 L 962 495 L 907 521 L 876 557 L 830 584 L 795 635 L 762 715 L 746 778 L 744 844 L 726 913 L 701 934 L 698 947 L 708 973 L 715 1043 L 741 1091 L 755 1102 L 807 1117 L 801 1165 L 807 1182 L 817 1179 L 826 1150 L 842 1156 L 831 1193 L 831 1216 L 850 1265 L 746 1305 L 679 1354 L 625 1418 L 578 1505 L 555 1613 L 535 1863 L 514 1948 L 519 2004 L 538 2047 L 1122 2046 L 1128 2039 L 1139 2047 L 1508 2047 L 1519 1982 L 1570 1956 L 1580 1945 L 1547 1774 L 1563 1739 L 1563 1716 L 1579 1673 L 1527 1593 L 1503 1544 L 1501 1518 L 1510 1446 L 1507 1389 L 1537 1428 L 1627 1574 L 1628 1568 L 1568 1460 L 1429 1242 L 1414 1146 L 1472 1103 L 1496 1015 L 1494 979 L 1467 948 L 1478 922 L 1479 898 L 1454 751 L 1477 629 L 1466 636 L 1446 672 L 1428 683 L 1411 633 L 1391 603 L 1329 567 L 1295 526 L 1229 486 L 1238 476 L 1245 437 L 1241 429 L 1247 405 L 1247 315 L 1261 279 L 1257 217 L 1212 163 Z" fill="#d4a964" />
</svg>