<svg xmlns="http://www.w3.org/2000/svg" viewBox="0 0 2728 1536" width="100%" height="100%">
  <path d="M 2217 708 L 2046 418 L 2005 396 L 1926 301 L 1923 331 L 1943 388 L 1930 400 L 1875 377 L 1851 380 L 1861 384 L 1853 394 L 1868 389 L 1842 404 L 1807 399 L 1774 418 L 1732 420 L 1654 389 L 1624 394 L 1540 370 L 1552 348 L 1577 338 L 1605 343 L 1609 328 L 1594 306 L 1585 234 L 1538 189 L 1469 198 L 1424 238 L 1369 220 L 1300 253 L 1123 273 L 1050 304 L 1000 342 L 975 385 L 968 448 L 977 478 L 1000 504 L 1159 576 L 1144 591 L 1107 605 L 985 588 L 955 598 L 928 589 L 853 593 L 703 555 L 635 558 L 443 635 L 365 683 L 312 733 L 261 816 L 223 849 L 157 879 L 98 888 L 103 894 L 29 891 L 96 899 L 0 942 L 0 958 L 28 950 L 1 967 L 0 1067 L 93 1001 L 171 966 L 261 980 L 246 985 L 248 996 L 293 981 L 281 1002 L 336 918 L 349 956 L 341 991 L 354 955 L 361 960 L 341 1016 L 234 1121 L 170 1242 L 73 1360 L 77 1419 L 49 1435 L 50 1467 L 62 1483 L 109 1470 L 137 1391 L 245 1236 L 499 1038 L 570 1101 L 586 1140 L 550 1271 L 559 1299 L 722 1481 L 785 1500 L 862 1483 L 866 1475 L 793 1467 L 753 1447 L 657 1316 L 668 1250 L 775 1021 L 786 962 L 809 943 L 955 1007 L 1071 1041 L 1199 1045 L 1229 1061 L 1255 1050 L 1340 1059 L 1459 1045 L 1491 1085 L 1574 1093 L 1684 1220 L 1734 1259 L 1828 1383 L 1892 1405 L 1905 1446 L 1976 1436 L 1993 1409 L 1898 1361 L 1851 1325 L 1780 1243 L 1706 1125 L 1765 1128 L 1832 1160 L 1927 1285 L 1956 1307 L 1947 1338 L 1955 1366 L 2008 1391 L 2030 1385 L 2018 1329 L 1977 1245 L 1895 1160 L 1864 1110 L 1824 1077 L 1744 1043 L 1647 983 L 1637 952 L 1678 783 L 1710 737 L 1824 653 L 1859 642 L 1868 654 L 1880 638 L 1906 642 L 1933 680 L 1978 693 L 1982 711 L 1995 705 L 2014 718 L 2019 743 L 2071 745 L 2107 786 L 2183 778 L 2218 728 Z" fill="#d4a964" />
</svg>